<?xml version="1.0" standalone="no"?>
<!DOCTYPE svg PUBLIC "-//W3C//DTD SVG 20010904//EN"
 "http://www.w3.org/TR/2001/REC-SVG-20010904/DTD/svg10.dtd">
<svg version="1.0" xmlns="http://www.w3.org/2000/svg"
 width="160.000000pt" height="148.000000pt" viewBox="0 0 160.000000 148.000000"
 preserveAspectRatio="xMidYMid meet">

<g transform="translate(0.000000,148.000000) scale(0.100000,-0.100000)"
fill="#000000" stroke="none">
<path d="M594 1272 c4 -8 0 -12 -11 -12 -24 -1 -68 -26 -57 -32 5 -3 24 -9 43
-13 23 -5 31 -4 27 4 -4 6 -2 11 3 11 15 0 14 37 -1 46 -7 4 -8 3 -4 -4z"/>
<path d="M362 1073 c-32 -46 -53 -93 -47 -103 8 -14 69 -13 99 2 20 9 23 14
15 25 -6 7 -9 23 -6 35 17 62 -26 90 -61 41z"/>
<path d="M1298 988 c7 -9 11 -21 10 -28 -2 -7 16 -21 40 -31 57 -25 53 -9 -10
37 -29 20 -47 30 -40 22z"/>
<path d="M1294 866 c4 -24 17 -32 57 -35 23 -1 46 -4 51 -7 4 -3 8 -1 8 5 0 5
-26 18 -59 28 -35 12 -58 15 -57 9z"/>
<path d="M324 842 c-49 -3 -52 -5 -58 -34 -3 -17 -6 -51 -6 -76 l0 -45 57 7
c32 4 61 10 66 15 4 4 4 36 0 72 l-8 64 -51 -3z"/>
<path d="M1290 750 c-11 -7 -11 -10 -2 -10 7 0 10 -5 7 -10 -7 -11 17 -7 90
16 l40 12 -60 1 c-33 0 -67 -4 -75 -9z"/>
<path d="M1340 663 c-67 -33 -65 -32 -57 -39 3 -4 14 -3 24 1 10 5 23 9 30 11
14 2 73 43 73 50 0 8 -16 3 -70 -23z"/>
<path d="M338 588 c-46 -12 -47 -25 -10 -92 29 -53 52 -70 52 -39 0 15 2 15
10 3 5 -8 12 -11 16 -7 4 3 2 13 -4 20 -9 10 -9 16 0 25 15 15 12 83 -4 94
-15 9 -11 9 -60 -4z"/>
<path d="M1342 564 c-23 -18 -44 -37 -45 -41 -1 -4 -4 -7 -7 -6 -3 1 -6 -7 -6
-17 0 -14 14 -5 55 35 30 30 53 56 51 58 -3 2 -24 -11 -48 -29z"/>
<path d="M1295 420 c-10 -11 -16 -22 -14 -24 2 -2 12 7 22 20 22 29 17 32 -8
4z"/>
<path d="M483 369 c-18 -5 -35 -13 -38 -18 -9 -16 64 -69 87 -63 12 3 15 7 9
12 -7 4 -9 15 -5 25 5 13 4 16 -4 11 -7 -4 -12 -2 -12 3 0 6 4 11 8 11 5 0 9
7 9 15 0 17 -8 17 -54 4z"/>
<path d="M755 211 c-3 -6 -11 -9 -16 -6 -5 4 -17 1 -26 -4 -16 -9 -15 -10 7
-11 28 0 58 16 48 25 -3 4 -9 1 -13 -4z"/>
</g>
</svg>
