<svg width="44" height="44" viewBox="0 0 44 44" fill="none" xmlns="http://www.w3.org/2000/svg">
<rect width="44" height="44" rx="22" fill="white"/>
<g clip-path="url(#clip0_112_2654)">
<path fill-rule="evenodd" clip-rule="evenodd" d="M22 14C17.5817 14 14 17.5817 14 22C14 26.4183 17.5817 30 22 30C26.4183 30 30 26.4183 30 22C30 17.5817 26.4183 14 22 14ZM12 22C12 16.4772 16.4772 12 22 12C27.5228 12 32 16.4772 32 22C32 27.5228 27.5228 32 22 32C16.4772 32 12 27.5228 12 22Z" fill="#26A4FF"/>
<path fill-rule="evenodd" clip-rule="evenodd" d="M25.7071 19.2929C26.0976 19.6834 26.0976 20.3166 25.7071 20.7071L21.7071 24.7071C21.3166 25.0976 20.6834 25.0976 20.2929 24.7071L18.2929 22.7071C17.9024 22.3166 17.9024 21.6834 18.2929 21.2929C18.6834 20.9024 19.3166 20.9024 19.7071 21.2929L21 22.5858L24.2929 19.2929C24.6834 18.9024 25.3166 18.9024 25.7071 19.2929Z" fill="#26A4FF"/>
</g>
<defs>
<clipPath id="clip0_112_2654">
<rect width="24" height="24" fill="white" transform="translate(10 10)"/>
</clipPath>
</defs>
</svg>
